<svg xmlns="http://www.w3.org/2000/svg" viewBox="0 0 84.19 27.12"><defs><style>.cls-1{font-size:12px;font-family:BodoniSvtyTwoITCTT-Book, "Bodoni 72";}.cls-1,.cls-2{fill:#231815;}</style></defs><g id="レイヤー_2" data-name="レイヤー 2"><g id="レイヤー_1-2" data-name="レイヤー 1"><text class="cls-1" transform="translate(0 10.21)">HAL Event Week!</text><path class="cls-2" d="M16.39,11.75h2c1.44,0,2.35.54,2.35,1.89a1.89,1.89,0,0,1-2,1.95l2.08,3.48h-.42l-2.06-3.46H16.74v3.46h-.35Zm1.88,3.55c1.36,0,2.11-.53,2.11-1.66s-.75-1.58-2.11-1.58H16.74V15.3Z"/><path class="cls-2" d="M22.3,15.38c0-2.29,1.13-3.76,2.71-3.76s2.71,1.47,2.71,3.76S26.59,19.2,25,19.2,22.3,17.69,22.3,15.38Zm5,0C27.34,13.29,26.4,12,25,12s-2.33,1.34-2.33,3.43.94,3.49,2.33,3.49S27.34,17.49,27.34,15.38Z"/><path class="cls-2" d="M32.68,16.89H28.83v-.18l4-4.75H33v4.61h1.28v.32H33v2.18h-.33Zm0-.32v-3c0-.33,0-.67,0-1h-.06l-.68.9-2.62,3.11Z"/><path class="cls-2" d="M36,18.85c2.71-2.47,4-3.75,4-5.05a1.6,1.6,0,0,0-1.83-1.65,2.63,2.63,0,0,0-1.93,1l-.25-.22a3,3,0,0,1,2.19-1.05,1.91,1.91,0,0,1,2.16,2c0,1.43-1.43,2.79-3.8,5,.46,0,.88,0,1.34,0h2.86v.31H36Z"/><path class="cls-2" d="M42.78,15.25h4.48v.31H42.78Z"/><path class="cls-2" d="M49.29,15.5c0-2.35.87-3.66,2.4-3.66s2.4,1.31,2.4,3.66-.87,3.7-2.4,3.7S49.29,17.83,49.29,15.5Zm4.44,0c0-2.19-.82-3.35-2-3.35s-2,1.16-2,3.35.82,3.39,2,3.39S53.73,17.69,53.73,15.5Zm-2.62-.12a.58.58,0,1,1,1.16,0,.58.58,0,1,1-1.16,0Z"/><path class="cls-2" d="M56,15.5c0-2.35.87-3.66,2.4-3.66s2.4,1.31,2.4,3.66-.87,3.7-2.4,3.7S56,17.83,56,15.5Zm4.44,0c0-2.19-.82-3.35-2-3.35s-2,1.16-2,3.35.82,3.39,2,3.39S60.4,17.69,60.4,15.5Zm-2.62-.12a.58.58,0,1,1,1.16,0,.58.58,0,1,1-1.16,0Z"/><path class="cls-2" d="M62.52,17.25a2.35,2.35,0,0,1,1.68-2v0a2,2,0,0,1-1.12-1.64,1.82,1.82,0,0,1,2-1.71,1.87,1.87,0,0,1,2.12,1.85,2.45,2.45,0,0,1-1.15,1.81v0c.81.4,1.46.78,1.46,1.82s-.89,1.84-2.43,1.84S62.52,18.36,62.52,17.25Zm4.64.11c0-1.26-1.22-1.54-2.64-2-.93.45-1.64,1-1.64,1.89s.82,1.64,2.21,1.64S67.16,18.2,67.16,17.36Zm-.31-3.67a1.57,1.57,0,0,0-1.76-1.54,1.48,1.48,0,0,0-1.66,1.4c0,1.07,1,1.49,2.25,1.86A2.13,2.13,0,0,0,66.85,13.69Z"/><path class="cls-2" d="M3.56,22.58a7.54,7.54,0,0,0-1.82-.86l.14-.21a7.35,7.35,0,0,1,1.82.82ZM4,24a32,32,0,0,1-1.71,3L2,26.75a28,28,0,0,0,1.75-3Zm0-3.69a6.88,6.88,0,0,0-1.74-1l.15-.2A7.06,7.06,0,0,1,4.1,20Zm5.43,6.37a.68.68,0,0,0,.31-.06.44.44,0,0,0,.11-.32c0-.2,0-.65.05-1.25a.5.5,0,0,0,.25.13A9.38,9.38,0,0,1,10,26.4a.5.5,0,0,1-.21.41.75.75,0,0,1-.42.1H9a.8.8,0,0,1-.42-.11c-.13-.08-.16-.21-.16-.93V19.72h-3v3a5.33,5.33,0,0,1-1.71,4.42.48.48,0,0,0-.19-.21,5,5,0,0,0,1.63-4.21V19.46H8.64V26c0,.33,0,.53.09.56a.43.43,0,0,0,.23.05ZM6,21.84a7.71,7.71,0,0,1,1.79,1.77l-.21.18A7.56,7.56,0,0,0,5.77,22Z"/><path class="cls-2" d="M18.43,26.5c0,.32-.1.43-.34.49a11,11,0,0,1-1.66,0,1.18,1.18,0,0,0-.11-.27c.77,0,1.41,0,1.59,0s.25-.06.25-.25V24.19h-3V27h-.27V24.19H12.15A5.11,5.11,0,0,1,11,27.12a.85.85,0,0,0-.19-.19,5.93,5.93,0,0,0,1.12-4V19.63h6.48Zm-3.55-2.57V22H12.22v.9c0,.31,0,.66,0,1Zm-2.66-4v1.87h2.66V19.89Zm2.93,0v1.87h3V19.89Zm3,4V22h-3v1.91Z"/><path class="cls-2" d="M27.26,25.48c0,.22,0,.76,0,.92H27c0-.11,0-.33,0-.54H21.4c0,.19,0,.42,0,.54h-.31c0-.19,0-.72,0-.91V21c0-.15,0-.34,0-.52l.67,0h4.78c.17,0,.49,0,.71,0a4.52,4.52,0,0,0,0,.52Zm-5.86-4.7V25.6H27V20.78Z"/><path class="cls-2" d="M29.5,25.31a9.44,9.44,0,0,0,1.78-2.37l.25.12a11.71,11.71,0,0,1-1.76,2.43Zm3.87-3.74v4.54c0,.42-.16.58-.62.58-.28,0-.83,0-1.11-.05l0-.32a7.37,7.37,0,0,0,1.1.11.33.33,0,0,0,.37-.37V21.57H30.33a6.8,6.8,0,0,0-.68,0v-.34a4.47,4.47,0,0,0,.67,0h2.77V20.16a3.23,3.23,0,0,0-.05-.49h.35c0,.13,0,.33,0,.49V21.3h2.71a4.27,4.27,0,0,0,.59,0v.32h-3.3ZM35.24,23a16.17,16.17,0,0,1,1.6,2.34l-.27.16A14.1,14.1,0,0,0,35,23.1ZM36,20.85a8.42,8.42,0,0,0-.76-1.24l.25-.12a10.35,10.35,0,0,1,.77,1.23Zm.46-1.61a9.39,9.39,0,0,1,.79,1.22l-.25.13a8.14,8.14,0,0,0-.78-1.24Z"/><path class="cls-2" d="M40.82,23.86l-.27.09c-.14-.45-.67-1.74-.8-2l.25-.12C40.14,22.15,40.65,23.41,40.82,23.86Zm4.57-2.08c0,.07-.06.17-.08.22a6.4,6.4,0,0,1-4.25,4.94l-.24-.24a6.26,6.26,0,0,0,2.92-1.93,6.41,6.41,0,0,0,1.35-3.08Zm-2.57,1.54-.26.11a16.61,16.61,0,0,0-.69-1.91l.27-.1C42.27,21.76,42.72,23,42.82,23.32Z"/><path class="cls-2" d="M54.5,23.87a23.43,23.43,0,0,0-3.87-1.54v3.38a7.69,7.69,0,0,0,0,.88h-.34a7.69,7.69,0,0,0,0-.88V20.42a5.91,5.91,0,0,0,0-.8h.37c0,.24,0,.63,0,.8V22a30.52,30.52,0,0,1,4,1.55Z"/><path class="cls-2" d="M64.53,20.36l-.15.18A8.55,8.55,0,0,1,62,23l-.27-.21a6.9,6.9,0,0,0,2.32-2.35H58.42c-.3,0-.68,0-1,0v-.37c.28,0,.66.06,1,.06H64a1.86,1.86,0,0,0,.33,0Zm-3.59,1.16c0,2.65-.39,4.11-2.56,5.08l-.28-.22a5.24,5.24,0,0,0,.68-.31c1.67-.92,1.86-2.53,1.86-4.05a4.44,4.44,0,0,0,0-.5Z"/><path class="cls-2" d="M66.39,22.81c.22,0,.53,0,1.08,0h5.12a7.36,7.36,0,0,0,.9,0v.34l-.89,0H67.47l-1.08,0Z"/><path class="cls-2" d="M82.6,26.65A11.71,11.71,0,0,0,82,25.36c-1.33.17-4.68.55-6,.66a5.16,5.16,0,0,0-.66.08l-.06-.34c.24,0,.47,0,.71,0l.65-.06c.46-1,1.58-4.43,1.82-5.26a3.3,3.3,0,0,0,.14-.7l.38.08a6.46,6.46,0,0,0-.25.67c-.24.81-1.34,4.17-1.76,5.19,1.55-.14,3.9-.4,4.88-.54a15.29,15.29,0,0,0-1.28-2.06l.25-.13a23.41,23.41,0,0,1,2,3.58Z"/></g></g></svg>