<!--?xml version="1.0" encoding="utf-8"?-->
<!-- Generator: Adobe Illustrator 19.1.1, SVG Export Plug-In . SVG Version: 6.00 Build 0)  -->
<svg version="1.1" id="_x31_0" xmlns="http://www.w3.org/2000/svg" xmlns:xlink="http://www.w3.org/1999/xlink" x="0px" y="0px" viewBox="0 0 512 512" style="width: 32px; height: 32px; opacity: 1;" xml:space="preserve">
<style type="text/css">
	.st0{fill:#374149;}
</style>
<g>
	<path class="st0" d="M291.666,312.238h-71.36c-3.523,0-5.762,3.762-4.082,6.801c7.121,12.961,22.238,21.84,39.762,21.84
		c17.519,0,32.637-8.879,39.758-21.84C297.423,316,295.185,312.238,291.666,312.238z" style="fill: rgb(75, 75, 75);"></path>
	<path class="st0" d="M249.423,109.598c0,3.598,2.961,6.558,6.562,6.558c3.598,0,6.558-2.961,6.558-6.558
		c0-3.598-2.961-6.558-6.558-6.558C252.384,103.039,249.423,106,249.423,109.598z" style="fill: rgb(75, 75, 75);"></path>
	<path class="st0" d="M177.666,172.957c-6.962,0-13.442,2.559-18.563,6.801h0.481c6.961,0,12.562,4.321,12.562,9.68
		c0,5.281-5.602,9.602-12.562,9.602c-3.848,0-7.207-1.348-9.469-3.438c-0.316-0.328-0.687-0.621-0.942-0.988
		c-0.007,0.023-0.007,0.046-0.019,0.07c-0.035-0.042-0.094-0.078-0.129-0.125c-1.282,3.598-2,7.52-2,11.598
		c0,18.321,13.679,33.122,30.641,33.122c16.878,0,30.558-14.801,30.558-33.122C208.224,187.836,194.544,172.957,177.666,172.957z
		 M177.666,231.438c-2.801,0-5.043-2.242-5.043-5.039c0-2.801,2.242-5.039,5.043-5.039c10.078,0,18.32-8.242,18.32-18.402
		c0-2.718,2.238-5.039,5.039-5.039c2.801,0,5.039,2.321,5.039,5.039C206.064,218.637,193.345,231.438,177.666,231.438z" style="fill: rgb(75, 75, 75);"></path>
	<path class="st0" d="M240.783,209.758c-1.758-42.078-32.16-64.16-61.278-64.16c-22.32,0-39.441,12.32-49.602,35.598
		c-8.64,19.844-9.441,41.922-9.519,48.164c-0.238,24.321,10.801,29.118,23.199,32.157c0.641,0.164,1.282,0.32,1.84,0.484
		c9.762,2.477,23.762,4,37.442,4c4,0,8-0.164,11.839-0.402C217.103,264.238,242.623,256.637,240.783,209.758z M194.146,255.598
		c-3.84,0.16-7.602,0.32-11.281,0.32c-14.402,0-27.199-1.679-34.879-3.679c-10.32-2.641-17.762-3.122-17.602-22.801
		c0.238-19.602,6.801-73.758,49.121-73.758c24.481,0,49.758,18.238,51.199,54.476C232.306,249.516,213.025,254.398,194.146,255.598z
		" style="fill: rgb(75, 75, 75);"></path>
	<path class="st0" d="M334.306,172.957c-8.531,0-16.25,3.863-21.836,9.996c-1.113,1.18-2.175,2.414-3.125,3.766
		c0.039,0,0.074,0.008,0.114,0.008c-0.035,0.055-0.078,0.098-0.114,0.153c6.879,0.078,12.398,4.398,12.398,9.598
		c0,5.359-5.598,9.679-12.558,9.679c-1.844,0-3.606-0.312-5.23-0.902c-0.016-0.007-0.039-0.007-0.054-0.019c0,0.004,0,0.004,0,0.004
		c-0.051-0.016-0.106-0.023-0.157-0.043c-0.078,0.321-0.078,0.641-0.078,0.961c0,18.321,13.758,33.122,30.64,33.122
		c16.958,0,30.637-14.801,30.637-33.122C364.943,187.836,351.263,172.957,334.306,172.957z M334.544,231.438
		c-2.718,0-4.961-2.242-4.961-5.039c0-2.801,2.242-5.039,4.961-5.039c10.16,0,18.398-8.242,18.398-18.402
		c0-2.718,2.242-5.039,5.043-5.039c2.797,0,5.039,2.321,5.039,5.039C363.025,218.637,350.224,231.438,334.544,231.438z" style="fill: rgb(75, 75, 75);"></path>
	<path class="st0" d="M368.384,261.516c12.32-3.039,23.442-7.836,23.199-32.157c-0.078-6.242-0.961-28.32-9.598-48.164
		c-10.082-23.278-27.203-35.598-49.523-35.598c-29.199,0-59.598,22.082-61.278,64.16c-1.84,46.879,23.598,54.481,46.078,55.84
		c3.839,0.238,7.839,0.402,11.762,0.402c13.758,0,27.758-1.523,37.438-4C367.103,261.836,367.743,261.68,368.384,261.516z
		 M329.025,255.918c-3.602,0-7.359-0.16-11.199-0.32c-18.883-1.199-38.16-6.082-36.562-45.442
		c1.441-36.238,26.64-54.476,51.199-54.476c42.32,0,48.882,54.156,49.042,73.758c0.238,19.679-7.281,20.16-17.519,22.801
		C356.306,254.238,343.505,255.918,329.025,255.918z" style="fill: rgb(75, 75, 75);"></path>
	<path class="st0" d="M489.903,153.836c-1.519-7.836-6.32-14.641-13.199-18.797c-12.64-7.602-22.32-15.203-31.762-24.242
		c-9.359-8.961-18.48-19.281-29.84-32.16c-6.238-7.121-13.359-15.278-21.437-24.078C349.826,6.477,299.505,0,255.986,0
		c-43.523,0-93.84,6.477-137.68,54.558c-8.082,8.801-15.203,16.958-21.441,24.078c-22.719,25.762-36.481,41.281-61.602,56.402
		c-6.879,4.156-11.68,10.961-13.199,18.797c-0.641,3.442-0.879,8.722-0.879,14.882c0,18.879,2.398,46.641,3.758,58.398
		c7.043,64.962,17.282,80.321,21.122,86.078l3.602,5.442l5.598,3.281c5.281,3.039,9.839,5.199,13.839,7.122
		c9.122,4.398,15.203,7.359,27.442,21.117c1.84,2.082,4,4.641,6.321,7.36c11.758,13.762,29.519,34.64,53.839,51.762
		c7.84,5.602,16,10.402,24.321,14.48c-0.719,2.719-1.359,5.438-1.84,7.922c-0.242,0.957-0.481,2.078-0.801,3.277
		c-1.121,4.961-2.879,12.481-3.121,20.723c-0.559,22.718,10.562,39.437,32.082,48.476c12.641,5.282,28.481,7.844,48.641,7.844
		c20.078,0,36-2.562,48.637-7.844c21.523-9.039,32.641-25.758,32-48.476c-0.16-8.242-1.918-15.762-3.118-20.723
		c-0.242-1.199-0.48-2.32-0.722-3.199c-0.477-2.48-1.117-5.281-1.84-8.078c8.321-4,16.402-8.883,24.242-14.402
		c24.398-17.122,42.16-38,53.918-51.762c2.321-2.719,4.481-5.278,6.321-7.36c12.242-13.758,18.242-16.718,27.442-21.117
		c4-1.922,8.558-4.082,13.758-7.122l5.683-3.281l3.598-5.442c3.84-5.758,14.082-21.117,21.122-86.078
		C488.783,211.516,492.544,167.836,489.903,153.836z M312.295,401.282c-2.149,0.941-4.313,1.87-6.551,2.718
		c-14.641,5.598-31.121,9.039-49.758,9.039c-18.641,0-35.203-3.442-49.84-9.039c-2.242-0.848-4.406-1.782-6.562-2.722
		c-0.882-0.387-1.77-0.766-2.637-1.164c-39.656-18.297-64.258-51.637-79.363-68.676c-21.519-24.242-31.598-24.242-48.078-33.84
		c-15.602-23.359-22.082-126.481-19.762-138.402c36.321-21.836,51.602-44.078,88.402-84.637c2.477,15.278,6.238,27.199,11.278,35.68
		c17.762,29.84,80.402,33.039,106.562,33.039c26.078,0,88.797-3.199,106.558-33.039c4.254-7.09,7.539-16.887,9.969-28.863
		c0.473-2.184,0.965-4.309,1.39-6.653c36.821,40.426,52.028,62.73,88.321,84.473c2.32,11.922-4.16,115.043-19.762,138.402
		c-16.477,9.598-26.559,9.598-48.078,33.84c-15.176,17.11-39.782,50.386-79.434,68.672
		C314.079,400.512,313.185,400.894,312.295,401.282z M293.743,478.156c-8.961,3.762-21.679,5.68-37.758,5.68
		c-16.082,0-28.801-1.918-37.762-5.68c-10.801-4.476-15.039-10.797-14.801-21.758c0.16-5.359,1.442-10.718,2.402-15.039
		c0.398-1.602,0.718-3.039,0.957-4.242c0.16-0.961,0.402-1.922,0.641-2.961c15.679,4.641,31.84,7.039,48.562,7.039
		c9.722,0,19.266-0.906,28.633-2.496c6.726-1.035,13.418-2.324,20.05-3.965c0.192,0.813,0.387,1.61,0.516,2.382
		c0.238,1.203,0.558,2.641,0.961,4.242c0.957,4.321,2.238,9.68,2.317,15.039C308.783,467.359,304.544,473.68,293.743,478.156z
		 M295.97,31.152l-2.465,6.207c-0.402,2.398,0.879,4.797,3.039,5.918l38.801,20.238c2.238,1.144,4.68,0.558,6.383-0.938
		c0.023-0.02,0.046-0.039,0.07-0.059c1-0.906,1.801-2.05,1.945-3.562l-0.847-6.758l-0.406-3.973
		c6.281,3.828,12.57,8.363,18.695,13.93c-2,18.321-5.68,32.321-10.722,40.801c-11.52,19.363-58.078,26.238-94.477,26.238
		c-36.402,0-82.961-6.875-94.481-26.238c-5.121-8.48-8.722-22.558-10.801-40.878c6.161-5.52,12.481-10.078,18.879-14l-1.359,10.878
		c0.148,1.516,0.953,2.664,1.957,3.57c0.016,0.012,0.031,0.027,0.043,0.039c1.703,1.504,4.156,2.098,6.398,0.95l38.801-20.238
		c2.16-1.122,3.359-3.52,3.039-5.918l-2.122-5.347l-0.328-0.898c13.75-2.477,27.258-2.958,39.973-2.958
		c11.547,0,23.77,0.477,36.215,2.406C293.463,30.77,294.697,30.906,295.97,31.152z" style="fill: rgb(75, 75, 75);"></path>
</g>
</svg>
